<?xml version="1.0" encoding="utf-8"?>
<!-- Generator: Adobe Illustrator 16.0.3, SVG Export Plug-In . SVG Version: 6.00 Build 0)  -->
<!DOCTYPE svg PUBLIC "-//W3C//DTD SVG 1.1//EN" "http://www.w3.org/Graphics/SVG/1.1/DTD/svg11.dtd">
<svg version="1.1" id="Layer_1" xmlns="http://www.w3.org/2000/svg" xmlns:xlink="http://www.w3.org/1999/xlink" x="0px" y="0px"
	 width="649.7px" height="156.989px" viewBox="0 0 649.7 156.989" enable-background="new 0 0 649.7 156.989" xml:space="preserve">
<g>
	<g>
		<path fill="#1F69BB" d="M163.495,52.961v40.178h24.031v12.391h-37.924V52.961H163.495z"/>
		<path fill="#1F69BB" d="M206.075,57.317c0,2.504-0.727,4.306-2.178,5.406c-1.453,1.103-3.154,1.652-5.106,1.652
			c-0.952,0-1.866-0.137-2.741-0.413c-0.876-0.274-1.652-0.7-2.328-1.276c-0.676-0.575-1.214-1.301-1.615-2.178
			c-0.401-0.876-0.601-1.939-0.601-3.191c0-1.202,0.2-2.253,0.601-3.154c0.4-0.901,0.939-1.627,1.615-2.178s1.451-0.964,2.328-1.239
			c0.875-0.275,1.79-0.413,2.741-0.413c1.953,0,3.654,0.551,5.106,1.652C205.349,53.087,206.075,54.864,206.075,57.317z
			 M192.407,105.529V69.483h12.766v36.047L192.407,105.529L192.407,105.529z"/>
		<path fill="#1F69BB" d="M225.675,52.961v19.451c1.101-1.151,2.527-2.115,4.28-2.892c1.752-0.776,3.905-1.164,6.459-1.164
			c3.003,0,5.606,0.562,7.81,1.689c2.203,1.126,4.018,2.591,5.445,4.393c1.427,1.803,2.479,3.856,3.155,6.158
			c0.676,2.304,1.014,4.606,1.014,6.909c0,2.354-0.338,4.669-1.014,6.946c-0.676,2.279-1.728,4.318-3.155,6.121
			c-1.427,1.802-3.242,3.267-5.445,4.394c-2.203,1.126-4.806,1.689-7.81,1.689c-3.255,0-5.884-0.627-7.886-1.877
			c-2.003-1.252-3.455-2.629-4.355-4.131v4.882h-11.265V52.961H225.675z M240.694,87.506c0-1.051-0.15-2.09-0.451-3.116
			c-0.3-1.025-0.763-1.953-1.389-2.778c-0.626-0.827-1.427-1.489-2.403-1.99c-0.976-0.5-2.14-0.752-3.492-0.752
			c-1.753,0-3.267,0.464-4.544,1.39c-1.277,0.927-2.191,1.966-2.741,3.116v8.261c0.55,1.152,1.464,2.191,2.741,3.117
			c1.277,0.927,2.791,1.39,4.544,1.39c1.352,0,2.516-0.25,3.492-0.752c0.977-0.499,1.777-1.163,2.403-1.989
			c0.626-0.826,1.089-1.753,1.389-2.779C240.544,89.598,240.694,88.558,240.694,87.506z"/>
		<path fill="#1F69BB" d="M276.365,69.934c2.302-1.151,5.231-1.552,8.787-1.202v12.392c-2.553-0.551-5.007-0.476-7.36,0.226
			c-2.354,0.701-4.105,1.928-5.257,3.68v20.502h-12.767V69.483h11.265v4.881C272.284,72.562,274.062,71.086,276.365,69.934z"/>
		<path fill="#1F69BB" d="M287.705,87.506c0-3.504,0.612-6.482,1.84-8.937c1.226-2.452,2.778-4.431,4.656-5.933
			s3.93-2.591,6.158-3.267c2.227-0.676,4.318-1.014,6.271-1.014c3.854,0,7.059,0.688,9.612,2.065s4.53,3.153,5.933,5.331
			c1.401,2.179,2.253,4.632,2.553,7.36c0.301,2.729,0.125,5.47-0.525,8.223h-23.581c0.35,1.003,0.901,1.853,1.653,2.554
			c0.75,0.702,1.639,1.277,2.666,1.728c1.025,0.45,2.152,0.776,3.379,0.976c1.226,0.201,2.49,0.301,3.792,0.301
			c2.053,0,3.917-0.15,5.595-0.45c1.677-0.301,3.267-0.725,4.769-1.276v9.462c-1.703,0.601-3.642,1.089-5.82,1.464
			c-2.178,0.376-4.694,0.563-7.547,0.563c-2.955,0-5.733-0.413-8.336-1.238c-2.604-0.826-4.87-2.053-6.796-3.681
			c-1.928-1.626-3.455-3.629-4.581-6.008C288.268,93.353,287.705,90.611,287.705,87.506z M312.562,83.676
			c0.1-0.45,0.1-1.014,0-1.689c-0.101-0.676-0.351-1.339-0.751-1.99c-0.401-0.649-1.002-1.213-1.803-1.689
			c-0.801-0.475-1.828-0.713-3.079-0.713c-1.753,0-3.267,0.538-4.543,1.614c-1.277,1.077-1.915,2.566-1.915,4.468H312.562z"/>
		<path fill="#F05C44" d="M389.462,52.961v52.569h-13.893V77.594l-11.265,17.272h-7.96L345.08,77.519v28.012h-13.893V52.961h13.142
			l15.996,24.633l15.996-24.633H389.462z"/>
		<path fill="#F05C44" d="M395.621,87.506c0-3.504,0.613-6.482,1.84-8.937c1.226-2.452,2.779-4.431,4.656-5.933
			s3.93-2.591,6.158-3.267c2.228-0.676,4.318-1.014,6.271-1.014c3.854,0,7.059,0.688,9.612,2.065
			c2.554,1.377,4.531,3.153,5.933,5.331c1.401,2.179,2.253,4.632,2.553,7.36s0.124,5.47-0.526,8.223h-23.581
			c0.35,1.003,0.901,1.853,1.652,2.554c0.751,0.702,1.639,1.277,2.666,1.728c1.025,0.45,2.152,0.776,3.379,0.976
			c1.227,0.201,2.49,0.301,3.793,0.301c2.052,0,3.917-0.15,5.594-0.45c1.677-0.301,3.267-0.725,4.769-1.276v9.462
			c-1.703,0.601-3.643,1.089-5.82,1.464c-2.178,0.376-4.694,0.563-7.548,0.563c-2.955,0-5.733-0.413-8.336-1.238
			c-2.604-0.826-4.869-2.053-6.796-3.681c-1.928-1.626-3.455-3.629-4.581-6.008C396.184,93.353,395.621,90.611,395.621,87.506z
			 M420.478,83.676c0.1-0.45,0.1-1.014,0-1.689c-0.101-0.676-0.351-1.339-0.75-1.99c-0.401-0.649-1.002-1.213-1.803-1.689
			c-0.801-0.475-1.828-0.713-3.079-0.713c-1.753,0-3.267,0.538-4.543,1.614c-1.277,1.077-1.915,2.566-1.915,4.468H420.478z"/>
		<path fill="#F05C44" d="M455.173,69.934c2.302-1.151,5.231-1.552,8.786-1.202v12.392c-2.553-0.551-5.007-0.476-7.359,0.226
			c-2.354,0.701-4.105,1.928-5.257,3.68v20.502h-12.767V69.483h11.264v4.881C451.092,72.562,452.869,71.086,455.173,69.934z"/>
		<path fill="#F05C44" d="M466.512,88.258c0-3.555,0.601-6.596,1.802-9.125c1.201-2.527,2.779-4.593,4.731-6.195
			c1.952-1.602,4.179-2.779,6.683-3.53c2.503-0.751,5.032-1.126,7.585-1.126c1.953,0,3.879,0.213,5.783,0.638
			c1.902,0.427,3.68,1.04,5.332,1.841v10.889c-1.252-0.7-2.692-1.288-4.318-1.765c-1.627-0.475-3.242-0.713-4.844-0.713
			c-1.252,0-2.454,0.149-3.604,0.45c-1.152,0.301-2.178,0.776-3.079,1.427c-0.901,0.651-1.615,1.502-2.141,2.554
			s-0.789,2.354-0.789,3.905c0,1.452,0.263,2.691,0.789,3.717c0.526,1.027,1.213,1.878,2.065,2.554
			c0.851,0.676,1.852,1.177,3.004,1.502c1.151,0.326,2.328,0.487,3.529,0.487c1.902,0,3.692-0.225,5.37-0.676
			c1.677-0.45,3.141-1.025,4.393-1.727v10.889c-1.803,0.751-3.743,1.339-5.82,1.765c-2.078,0.425-4.269,0.639-6.571,0.639
			c-2.504,0-4.957-0.364-7.36-1.089c-2.403-0.726-4.531-1.84-6.383-3.342s-3.342-3.404-4.468-5.708
			C467.075,94.216,466.512,91.462,466.512,88.258z"/>
		<path fill="#F05C44" d="M539.206,95.241c0,0.853,0.25,1.439,0.751,1.765c0.5,0.327,1.076,0.488,1.727,0.488
			c0.5,0,0.976-0.074,1.427-0.225v7.885c-0.852,0.351-1.84,0.626-2.966,0.826c-1.126,0.199-2.291,0.3-3.492,0.3
			c-4.006,0-6.86-1.325-8.562-3.979c-1.753,1.352-3.643,2.416-5.67,3.191s-4.318,1.164-6.871,1.164
			c-1.753,0-3.379-0.251-4.882-0.751c-1.502-0.5-2.829-1.227-3.98-2.178c-1.151-0.95-2.053-2.114-2.703-3.492
			c-0.651-1.377-0.977-2.94-0.977-4.693c0-2.253,0.488-4.143,1.464-5.67s2.215-2.754,3.717-3.681
			c1.502-0.926,3.179-1.576,5.032-1.952c1.852-0.375,3.654-0.563,5.407-0.563c2.703,0,5.306,0.276,7.81,0.826v-1.276
			c0-1.302-0.614-2.378-1.84-3.229c-1.228-0.851-3.117-1.276-5.67-1.276c-2.403,0-4.669,0.288-6.797,0.863
			c-2.128,0.576-4.068,1.215-5.819,1.915V70.76c0.75-0.25,1.652-0.513,2.703-0.789c1.051-0.274,2.202-0.537,3.455-0.788
			c1.251-0.25,2.541-0.45,3.868-0.601c1.326-0.15,2.666-0.226,4.018-0.226c2.854,0,5.445,0.275,7.773,0.826
			c2.328,0.552,4.318,1.478,5.97,2.778c1.652,1.303,2.916,3.03,3.792,5.182c0.875,2.153,1.314,4.833,1.314,8.036V95.241z
			 M516.151,94.49c0,0.952,0.387,1.778,1.164,2.479c0.776,0.702,1.84,1.052,3.192,1.052c1.051,0,2.052-0.138,3.003-0.413
			c0.951-0.274,1.927-0.763,2.929-1.465v-4.882c-0.551-0.199-1.239-0.362-2.065-0.487c-0.826-0.124-1.666-0.188-2.516-0.188
			c-1.502,0-2.83,0.289-3.98,0.864C516.726,92.025,516.151,93.039,516.151,94.49z"/>
		<path fill="#F05C44" d="M586.817,52.961v52.569h-11.265v-4.882c-0.901,1.502-2.354,2.88-4.355,4.131
			c-2.003,1.25-4.631,1.877-7.885,1.877c-3.004,0-5.608-0.563-7.811-1.689c-2.204-1.127-4.018-2.592-5.445-4.394
			c-1.426-1.803-2.478-3.842-3.154-6.12c-0.676-2.278-1.014-4.593-1.014-6.947c0-2.302,0.338-4.605,1.014-6.909
			c0.676-2.302,1.728-4.355,3.154-6.158c1.427-1.802,3.241-3.267,5.445-4.393c2.202-1.127,4.806-1.689,7.811-1.689
			c2.553,0,4.705,0.388,6.458,1.164c1.752,0.776,3.179,1.74,4.281,2.892V52.961H586.817z M574.051,83.376
			c-0.551-1.151-1.464-2.189-2.741-3.116s-2.792-1.39-4.543-1.39c-1.352,0-2.516,0.251-3.492,0.751
			c-0.976,0.501-1.778,1.164-2.403,1.99c-0.627,0.826-1.089,1.753-1.39,2.779c-0.3,1.026-0.45,2.064-0.45,3.116
			c0,1.051,0.15,2.092,0.45,3.116c0.301,1.027,0.763,1.953,1.39,2.779c0.625,0.826,1.427,1.49,2.403,1.99
			c0.976,0.501,2.141,0.751,3.492,0.751c1.752,0,3.267-0.462,4.543-1.39c1.277-0.926,2.189-1.964,2.741-3.116V83.376z"/>
		<path fill="#F05C44" d="M592.674,87.506c0-3.203,0.551-5.994,1.652-8.373c1.101-2.377,2.578-4.368,4.431-5.971
			c1.852-1.602,4.004-2.804,6.458-3.604c2.453-0.801,5.032-1.201,7.735-1.201c2.704,0,5.282,0.401,7.735,1.201
			c2.453,0.802,4.606,2.003,6.459,3.604c1.851,1.603,3.329,3.593,4.43,5.971c1.101,2.379,1.652,5.17,1.652,8.373
			c0,3.205-0.551,5.997-1.652,8.374c-1.102,2.378-2.579,4.368-4.43,5.97c-1.853,1.604-4.006,2.805-6.459,3.605
			c-2.454,0.8-5.031,1.201-7.735,1.201c-2.703,0-5.283-0.401-7.735-1.201c-2.454-0.801-4.607-2.002-6.458-3.605
			c-1.853-1.601-3.33-3.592-4.431-5.97C593.225,93.503,592.674,90.711,592.674,87.506z M620.085,87.506
			c0-1.001-0.126-1.977-0.375-2.929c-0.251-0.95-0.665-1.789-1.239-2.516c-0.576-0.726-1.314-1.314-2.215-1.765
			c-0.901-0.451-2.003-0.676-3.304-0.676c-1.303,0-2.417,0.225-3.342,0.676c-0.927,0.45-1.666,1.039-2.215,1.765
			c-0.552,0.727-0.952,1.565-1.202,2.516c-0.251,0.952-0.375,1.928-0.375,2.929c0,1.003,0.125,1.979,0.375,2.93
			c0.25,0.951,0.65,1.79,1.202,2.516c0.55,0.726,1.289,1.314,2.215,1.765c0.926,0.45,2.04,0.676,3.342,0.676
			c1.301,0,2.403-0.226,3.304-0.676c0.901-0.45,1.639-1.039,2.215-1.765c0.575-0.726,0.988-1.564,1.239-2.516
			C619.959,89.484,620.085,88.509,620.085,87.506z"/>
	</g>
	<g>
		<g>
			<g>
				<g>
					<defs>
						<path id="SVGID_1_" d="M90.312,129.288c0,0,5.221-52.796,7.363-62.042c-0.254-1.82-45.828-0.592-45.828-0.592l7.503,62.634
							H90.312L90.312,129.288z"/>
					</defs>
					<clipPath id="SVGID_2_">
						<use xlink:href="#SVGID_1_"  overflow="visible"/>
					</clipPath>
					<g clip-path="url(#SVGID_2_)">
						<path fill="#F05C44" d="M109.11,87.413c-0.258-4.841-2.308-9.385-5.769-12.797c-3.513-3.464-8.102-5.371-12.919-5.371
							c-7.214,0-12.322,5.572-15.066,8.566c-0.156,0.17-0.324,0.353-0.487,0.529c-0.088-0.099-0.175-0.199-0.258-0.293
							c-2.509-2.857-7.728-8.802-15.412-8.802c-4.817,0-9.405,1.907-12.919,5.371c-3.461,3.412-5.511,7.956-5.77,12.797
							c-0.257,4.811,0.966,8.985,3.965,13.536c2.688,4.08,9.688,10.53,14.865,14.813c5.322,4.403,12.331,9.653,15.5,9.653
							c3.219,0,10.203-5.238,15.496-9.632c5.137-4.265,12.099-10.709,14.812-14.835C107.165,97.878,109.44,93.565,109.11,87.413z"/>
						<path fill="#231F20" d="M74.839,126.97c-1.086,0-4.394,0-16.492-10.01c-5.26-4.352-12.39-10.933-15.172-15.156
							c-3.194-4.847-4.496-9.311-4.22-14.475c0.28-5.229,2.493-10.137,6.231-13.822c3.807-3.752,8.783-5.819,14.011-5.819
							c7.546,0,12.782,5.101,15.693,8.33c3.033-3.266,8.213-8.33,15.53-8.33c5.229,0,10.206,2.067,14.012,5.819
							c3.738,3.686,5.951,8.594,6.23,13.822c0.354,6.603-2.068,11.203-4.217,14.473c-2.808,4.27-9.899,10.845-15.118,15.177
							C79.296,126.97,75.942,126.97,74.839,126.97z M59.198,70.8c-4.406,0-8.606,1.749-11.827,4.923
							c-3.185,3.14-5.07,7.32-5.309,11.772c-0.238,4.457,0.906,8.342,3.711,12.597c2.593,3.937,9.462,10.255,14.558,14.471
							c10.424,8.625,13.74,9.295,14.508,9.295c0.782,0,4.138-0.668,14.502-9.273c5.054-4.196,11.886-10.509,14.505-14.493
							c1.888-2.871,4.016-6.898,3.71-12.597c-0.238-4.452-2.123-8.632-5.308-11.771c-3.22-3.175-7.42-4.924-11.827-4.924
							c-6.53,0-11.336,5.245-13.919,8.062c-0.158,0.172-0.328,0.357-0.494,0.536l-1.166,1.257l-1.4-1.58
							C71.083,76.387,66.177,70.8,59.198,70.8z"/>
					</g>
				</g>
			</g>
		</g>
		<path fill="#FDD32F" d="M100.213,66.992c3.14,8.641,6.279,17.284,9.479,26.089c-0.594,0.097-0.961,0.207-1.328,0.208
			c-3.957,0.013-7.914-0.015-11.87,0.025c-1.162,0.012-1.621-0.33-1.392-1.562c1-5.384,1.922-10.783,2.927-16.167
			c0.534-2.857,1.179-5.694,1.774-8.54C99.939,67.028,100.076,67.01,100.213,66.992z"/>
		<path fill="#FDD32F" d="M49.2,66.774c0.948,4.466,1.961,8.92,2.822,13.403c0.733,3.822,1.261,7.684,1.943,11.517
			c0.233,1.307-0.264,1.64-1.481,1.625c-4.038-0.046-8.077-0.018-12.479-0.018c2.975-9.001,5.867-17.753,8.76-26.506
			C48.911,66.789,49.056,66.781,49.2,66.774z"/>
		<path fill="#FDD32F" d="M92.633,60.112c-0.743,0.044-1.266,0.104-1.788,0.101c-11.162-0.045-22.324-0.119-33.486-0.126
			c-1.42-0.001-1.549-0.559-1.248-1.709c1.024-3.9,1.009-3.9,5.055-3.899c9.188,0.002,18.376,0.028,27.564-0.027
			c1.523-0.009,2.535,0.223,2.802,1.969C91.715,57.61,92.214,58.75,92.633,60.112z M74.149,58.124c2.563,0,5.127,0.007,7.691-0.003
			c0.968-0.004,1.983-0.053,2.083-1.337c0.106-1.375-0.944-1.658-1.958-1.667c-5.127-0.045-10.255-0.046-15.382-0.005
			c-0.995,0.008-2.103,0.229-2.023,1.602c0.071,1.228,1.041,1.408,2.045,1.409C69.12,58.125,71.635,58.123,74.149,58.124z"/>
		<path fill="#F05C44" d="M100.547,104.337c-1.973,0.002-3.946-0.023-5.917,0.013c-0.92,0.018-1.364-0.215-1.243-1.263
			c0.23-2.002,0.307-4.022,0.561-6.021c0.046-0.36,0.632-0.925,0.976-0.932c4.042-0.067,8.087-0.069,12.129-0.006
			c0.313,0.005,0.878,0.612,0.884,0.946c0.033,2.067-0.08,4.136-0.101,6.204c-0.009,0.875-0.469,1.07-1.224,1.063
			C104.59,104.322,102.568,104.335,100.547,104.337z"/>
		<path fill="#1F69BB" d="M56.134,104.223c-0.759,0.047-1.334,0.112-1.909,0.114c-3.65,0.009-7.302-0.024-10.952,0.021
			c-1.076,0.014-1.489-0.333-1.47-1.442c0.032-1.871-0.048-3.745-0.134-5.615c-0.04-0.866,0.206-1.242,1.152-1.232
			c3.848,0.041,7.696-0.011,11.544,0.051c0.445,0.007,1.233,0.479,1.267,0.797C55.88,99.295,55.979,101.688,56.134,104.223z"/>
		<path fill="#1F69BB" d="M25.522,72.118c4.05-3.55,8.722-5.109,14.377-4.801c-0.611,1.777-1.146,3.331-1.679,4.883
			c-0.016,0.046-0.046,0.09-0.055,0.137c-0.401,2.158-1.329,3.782-3.788,4.081c-0.537,0.065-1.138,0.463-1.507,0.886
			c-1.015,1.165-1.732,0.777-2.601-0.198C28.799,75.457,27.226,73.897,25.522,72.118z"/>
		<path fill="#F05C44" d="M124.019,72.188c-1.808,1.892-3.515,3.728-5.301,5.484c-0.247,0.243-0.954,0.242-1.333,0.083
			c-1.428-0.603-2.812-1.31-4.203-1.996c-0.247-0.122-0.575-0.287-0.655-0.508c-0.889-2.446-1.74-4.906-2.587-7.368
			c-0.04-0.115,0.059-0.278,0.091-0.409C113.922,66.46,121.232,68.941,124.019,72.188z"/>
		<path fill="#F05C44" d="M26.04,100.133c1.575-1.459,2.948-2.722,4.309-3.997c0.359-0.337,0.75-0.672,1.007-1.083
			c0.594-0.949,1.139-0.969,2.171-0.451c1.38,0.694,2.939,1.103,4.467,1.405c0.87,0.171,1.185,0.411,1.142,1.289
			c-0.093,1.922-0.062,3.852-0.198,5.77c-0.03,0.43-0.554,1.194-0.825,1.182C33.902,104.075,29.957,103.031,26.04,100.133z"/>
		<path fill="#1F69BB" d="M123.303,100.252c-2.167,1.861-4.609,2.742-7.137,3.382c-1.331,0.336-2.717,0.454-4.081,0.662
			c-0.985,0.15-1.438-0.195-1.426-1.277c0.023-1.921-0.06-3.845-0.137-5.766c-0.032-0.775,0.212-1.044,1.033-1.238
			c1.7-0.404,3.332-1.087,5.007-1.604c0.361-0.111,0.959-0.177,1.16,0.023C119.563,96.281,121.342,98.19,123.303,100.252z"/>
		<path fill="#1F69BB" d="M126.351,74.44c1.74,1.888,2.873,4.197,3.588,6.718c0.28,0.986,0.407,2.02,0.562,3.038
			c0.115,0.762-0.249,1.033-1.024,1.023c-2.611-0.036-5.223-0.008-7.834-0.013c-0.24,0-0.529,0.013-0.711-0.107
			c-0.895-0.591-1.195-4.321-0.402-5.089C122.401,78.194,124.298,76.4,126.351,74.44z"/>
		<path fill="#F05C44" d="M23.353,74.365c2.081,2.032,3.985,3.953,5.964,5.794c0.74,0.688,0.558,1.336,0.327,2.122
			c-0.854,2.897-0.838,2.899-3.801,2.901c-1.823,0-3.649-0.053-5.468,0.04c-1.03,0.052-1.344-0.331-1.219-1.27
			C19.635,80.364,20.927,77.143,23.353,74.365z"/>
		<path fill="#1F69BB" d="M19.346,88.003c2.962,0,5.953-0.019,8.942,0.032c0.263,0.004,0.621,0.408,0.761,0.708
			c1.464,3.135,1.454,3.14-1.001,5.587c-1.082,1.079-2.125,2.202-3.267,3.212c-0.279,0.247-1.081,0.35-1.299,0.148
			C21.66,96.009,18.995,91.025,19.346,88.003z"/>
		<path fill="#F05C44" d="M125.641,98.291c-2.127-2.073-4.117-3.977-6.043-5.943c-0.209-0.213-0.178-0.841-0.038-1.187
			c1.227-3.014,1.242-3.01,4.524-3.016c1.679-0.003,3.359,0.028,5.038-0.005c0.952-0.02,1.429,0.32,1.204,1.313
			C129.583,92.737,128.15,95.656,125.641,98.291z"/>
		<path fill="#FDD32F" d="M86.42,40.525c-8.372,0-16.734,0-25.093,0c-0.119-2.108,0.709-2.947,3.003-2.957
			c5.33-0.021,10.66-0.008,15.99-0.007c1.085,0,2.173-0.029,3.257,0.013C85.46,37.646,86.212,38.423,86.42,40.525z"/>
		<path fill="#1F69BB" d="M82.618,43.619c-2.393,1.624-4.786,3.248-7.182,4.869c-0.08,0.054-0.181,0.106-0.272,0.106
			c-3.312,0.006-6.625,0.005-9.938,0.005c-0.045-0.121-0.091-0.241-0.136-0.362c1.268-0.865,2.636-1.616,3.785-2.619
			c2.458-2.147,5.249-2.84,8.442-2.525c1.724,0.17,3.479,0.03,5.22,0.03C82.563,43.288,82.591,43.454,82.618,43.619z"/>
		<path fill="#F05C44" d="M67.646,43.609c-2.428,1.639-4.75,3.482-7.333,4.824c-1.127,0.586-2.793,0.217-4.202,0.111
			c-0.289-0.022-0.537-0.795-0.765-1.242c-0.049-0.096,0.064-0.279,0.112-0.417c1.468-4.247,0.816-3.739,5.01-3.76
			c2.344-0.012,4.688-0.002,7.032-0.002C67.549,43.284,67.597,43.446,67.646,43.609z"/>
		<path fill="#F05C44" d="M80.05,48.235c2.048-1.384,4.14-2.709,6.126-4.177c1.026-0.758,2.07-0.993,3.296-0.949
			c1.045,0.038,1.618,0.504,1.942,1.461c1.64,4.83,0.825,4.125-2.929,4.128c-2.364,0.002-4.729,0.006-7.093-0.002
			c-0.408-0.001-0.816-0.064-1.225-0.098C80.129,48.477,80.09,48.356,80.05,48.235z"/>
		<path fill="#1F69BB" d="M103.485,65.523c2.419-0.637,2.579-0.429,3.269,1.882c0.972,3.256,2.157,6.449,3.245,9.671
			c0.09,0.267,0.138,0.548,0.204,0.815c-2.01,0.588-2.3,0.493-2.909-1.245C106.009,72.98,104.773,69.296,103.485,65.523z"/>
		<path fill="#F05C44" d="M46.179,65.499c-1.389,4.051-2.705,8.019-4.123,11.949c-0.481,1.333-1.615,0.562-2.701,0.613
			c0.928-2.808,1.802-5.459,2.682-8.108c0.295-0.888,0.676-1.754,0.896-2.659C43.474,65.076,43.68,64.935,46.179,65.499z"/>
		<path d="M74.149,58.124c-2.515-0.001-5.029,0.001-7.544-0.001c-1.005-0.001-1.975-0.181-2.046-1.409
			c-0.08-1.373,1.028-1.594,2.023-1.602c5.127-0.042,10.255-0.041,15.382,0.005c1.014,0.008,2.064,0.292,1.958,1.666
			c-0.099,1.285-1.115,1.334-2.083,1.338C79.277,58.131,76.713,58.124,74.149,58.124z"/>
		<circle cx="48.346" cy="77.866" r="2.008"/>
		<circle cx="35.963" cy="117.363" r="2.008"/>
		<circle cx="53.399" cy="129.287" r="2.008"/>
		<circle cx="95.667" cy="129.287" r="2.008"/>
		<circle cx="113.604" cy="117.363" r="2.008"/>
		<circle cx="100.655" cy="77.866" r="2.008"/>
		<path d="M28.556,116.897c-0.901,1.86-0.236,3.283,1.243,4.953c0.329-0.872,3.336-7.747,3.336-7.747l0.109-0.33
			c0.263-0.891,0.745-1.127,1.607-1.125c6.726,0.021,13.453,0.019,20.179-0.008c1.041-0.004,1.544,0.373,1.609,1.442
			c0.226,3.747,0.545,7.489,0.732,11.238c0.208,4.192,0.289,8.076,0.47,12.27c0.102,2.381,0.24,2.489,2.567,2.795
			c0.052-0.319,0.154-0.643,0.149-0.965c-0.11-6.816-0.237-13.317-0.353-20.133c0,0-1.529-20.782-2.607-26.948
			c-1.514-8.656-3.097-17.287-5.75-25.686c-0.368-1.164-0.591-2.373-0.932-3.771c15.773,0,31.377,0,47.2,0
			c-0.558,2.134-1.189,4.145-1.602,6.199c-1.538,7.641-3.013,15.294-4.485,22.948l-2.741,26.067
			c-0.304,7.205-0.534,13.167-0.774,20.375c-0.01,0.312,0.121,0.629,0.183,0.933c2.148-0.246,2.431-0.491,2.532-2.406
			c0.122-2.316,0.155-3.393,0.273-5.708c0.281-5.526,0.562-11.053,0.901-16.576c0.126-2.053,0.199-2.056,2.191-2.061
			c7.072-0.019,14.144-0.008,21.215-0.069c1.025-0.009,1.233,0.609,1.499,1.305c0.45,1.181,3.798,6.514,4.345,7.961
			c1.479-1.669,2.145-3.092,1.243-4.953c-0.578-1.193-3.798-6.66-4.339-7.874c-0.43-0.964-0.138-1.26,0.772-1.741
			c2.026-1.071,4.089-2.2,5.817-3.679c7.178-6.146,9.617-13.948,7.188-23.05c-1.965-7.364-7.096-12.107-14.004-14.79
			c-2.452-0.953-5.317-0.816-7.978-1.27c-0.75-0.128-1.445-0.585-2.164-0.894c-0.7-0.3-1.376-0.767-2.103-0.864
			c-1.118-0.15-2.273-0.002-3.406-0.077c-0.445-0.029-1.033-0.195-1.279-0.512c-1.15-1.482-2.668-2.004-4.445-1.839
			c-0.937,0.086-1.332-0.308-1.579-1.137c-0.619-2.078-1.264-4.15-1.952-6.206c-0.396-1.18-0.591-2.237,0.635-3.091
			c0.286-0.2,0.48-0.647,0.558-1.014c0.56-2.659-0.413-4.927-2.029-6.923c-0.437-0.539-1.32-0.904-2.04-0.983
			c-0.995-0.11-1.315-0.558-1.537-1.444c-0.749-2.979-2.535-4.36-5.646-4.427c-1.78-0.039-3.561-0.005-5.341-0.006
			c-2.732-0.002-3.027-0.209-2.643-2.72c1.264-0.464,2.167-1.674,2.167-3.098c0-1.824-1.479-3.303-3.303-3.303
			c-1.824,0-3.303,1.479-3.303,3.303c0,1.386,0.855,2.571,2.066,3.061c0.063,0.427,0.078,0.867,0.099,1.325
			c0.051,1.088-0.266,1.491-1.409,1.456c-2.52-0.078-5.045-0.051-7.566-0.013c-2.295,0.034-4.14,0.904-5.13,3.103
			c-0.282,0.625-0.38,1.333-0.662,1.958c-0.135,0.3-0.503,0.71-0.76,0.706c-2.051-0.034-3.03,1.35-3.729,2.905
			c-1.146,2.555-2.077,5.169,0.917,7.263c0.186,0.13,0.246,0.635,0.171,0.914c-0.667,2.478-1.426,4.931-2.047,7.419
			c-0.207,0.829-0.625,0.878-1.333,0.991c-1.133,0.18-2.674,0.265-3.244,1.005c-1.178,1.532-2.597,1.236-4.078,1.379
			c-0.924,0.089-2.045,0.29-2.663,0.876c-0.781,0.742-1.509,0.947-2.488,0.93c-4.124-0.071-7.958,0.762-11.539,3.024
			c-8.267,5.223-12.185,12.619-10.8,22.283c1.217,8.497,6.106,14.478,14.19,17.653c0.976,0.383,1.149,0.83,0.791,1.788
			c-0.287,0.763,0.108-0.433-0.57,1.625C31.157,110.909,28.788,116.417,28.556,116.897z M42.037,69.953
			c0.295-0.888,0.676-1.754,0.896-2.659c0.54-2.218,0.746-2.359,3.246-1.795c-1.39,4.051-2.705,8.019-4.124,11.949
			c-0.48,1.333-1.614,0.562-2.701,0.613C40.284,75.253,41.157,72.602,42.037,69.953z M40.299,83.174
			c-1.046,3.188-1.983,6.138-3.015,9.054c-0.114,0.323-0.816,0.706-1.16,0.636c-2.103-0.424-4.292-3.315-4.481-5.757
			c-0.197-2.558,1.503-5.343,3.997-6.321C36.3,83.035,38.149,83.356,40.299,83.174z M39.899,67.317
			c-0.611,1.777-1.146,3.331-1.679,4.883c-0.016,0.046-0.046,0.09-0.055,0.137c-0.401,2.158-1.329,3.782-3.788,4.081
			c-0.537,0.065-1.138,0.463-1.507,0.886c-1.015,1.165-1.732,0.777-2.601-0.198c-1.471-1.65-3.044-3.21-4.748-4.989
			C29.572,68.567,34.245,67.008,39.899,67.317z M19.156,83.951c0.479-3.586,1.771-6.808,4.196-9.586
			c2.081,2.032,3.985,3.953,5.964,5.794c0.74,0.688,0.558,1.336,0.327,2.122c-0.854,2.897-0.838,2.899-3.801,2.901
			c-1.823,0-3.649-0.053-5.468,0.04C19.345,85.273,19.031,84.89,19.156,83.951z M23.481,97.69c-1.821-1.681-4.486-6.665-4.135-9.687
			c2.962,0,5.953-0.019,8.942,0.032c0.263,0.004,0.621,0.408,0.761,0.708c1.464,3.135,1.454,3.14-1.001,5.587
			c-1.082,1.079-2.125,2.202-3.267,3.212C24.502,97.789,23.7,97.892,23.481,97.69z M38.938,103.067
			c-0.03,0.43-0.554,1.194-0.825,1.183c-4.21-0.175-8.156-1.219-12.073-4.117c1.575-1.459,2.948-2.722,4.309-3.997
			c0.359-0.337,0.75-0.671,1.007-1.082c0.594-0.949,1.139-0.97,2.171-0.452c1.38,0.694,2.939,1.103,4.467,1.405
			c0.87,0.171,1.185,0.411,1.142,1.289C39.043,99.22,39.074,101.149,38.938,103.067z M55.631,96.917
			c0.249,2.377,0.348,4.771,0.502,7.305c-0.759,0.047-1.333,0.112-1.909,0.114c-3.65,0.009-7.302-0.024-10.952,0.021
			c-1.077,0.013-1.489-0.333-1.471-1.442c0.032-1.871-0.048-3.745-0.134-5.615c-0.04-0.866,0.206-1.242,1.152-1.232
			c3.848,0.041,7.697-0.012,11.544,0.051C54.81,96.128,55.597,96.599,55.631,96.917z M52.022,80.177
			c0.734,3.822,1.262,7.684,1.944,11.517c0.232,1.307-0.264,1.64-1.482,1.625c-4.039-0.046-8.077-0.018-12.479-0.018
			c2.975-9.001,5.867-17.753,8.76-26.506c0.145-0.007,0.29-0.014,0.434-0.021C50.148,71.24,51.162,75.694,52.022,80.177z
			 M89.472,43.109c1.045,0.038,1.618,0.504,1.943,1.461c1.639,4.83,0.825,4.125-2.93,4.128c-2.364,0.002-4.728,0.006-7.092-0.002
			c-0.409-0.001-0.817-0.064-1.225-0.098c-0.04-0.121-0.079-0.241-0.118-0.362c2.048-1.384,4.14-2.709,6.126-4.177
			C87.203,43.3,88.247,43.065,89.472,43.109z M75.437,48.488c-0.08,0.054-0.181,0.106-0.272,0.106
			c-3.312,0.006-6.625,0.005-9.938,0.005c-0.045-0.121-0.091-0.241-0.136-0.362c1.268-0.865,2.636-1.616,3.785-2.619
			c2.458-2.147,5.249-2.84,8.442-2.525c1.724,0.17,3.479,0.03,5.22,0.03c0.027,0.165,0.055,0.331,0.082,0.496
			C80.225,45.243,77.832,46.867,75.437,48.488z M64.33,37.568c5.33-0.021,10.66-0.008,15.99-0.007c1.085,0,2.173-0.029,3.257,0.013
			c1.884,0.072,2.636,0.849,2.844,2.951c-8.372,0-16.734,0-25.093,0C61.208,38.416,62.036,37.578,64.33,37.568z M55.346,47.302
			c-0.049-0.096,0.064-0.279,0.112-0.417c1.467-4.247,0.816-3.739,5.01-3.76c2.344-0.012,4.688-0.002,7.032-0.002
			c0.049,0.162,0.098,0.325,0.147,0.487c-2.428,1.639-4.75,3.482-7.333,4.824c-1.127,0.585-2.793,0.216-4.202,0.11
			C55.823,48.521,55.575,47.748,55.346,47.302z M90.845,60.213c-11.162-0.045-22.324-0.119-33.486-0.126
			c-1.42-0.001-1.549-0.559-1.248-1.709c1.024-3.9,1.009-3.9,5.055-3.899c9.188,0.002,18.376,0.028,27.564-0.027
			c1.523-0.009,2.535,0.223,2.802,1.969c0.183,1.189,0.682,2.33,1.101,3.691C91.891,60.156,91.368,60.215,90.845,60.213z
			 M110.031,67.475c3.892-1.015,11.202,1.466,13.988,4.713c-1.808,1.892-3.515,3.728-5.301,5.484
			c-0.247,0.243-0.954,0.242-1.333,0.083c-1.428-0.603-2.812-1.31-4.203-1.996c-0.247-0.122-0.575-0.287-0.655-0.508
			c-0.889-2.446-1.74-4.906-2.587-7.368C109.9,67.769,109.999,67.606,110.031,67.475z M118.02,86.96
			c-0.119,2.402-2.224,5.333-4.326,5.877c-0.333,0.087-1.043-0.205-1.151-0.486c-1.13-2.93-2.172-5.894-3.363-9.194
			c2.333,0.205,4.162-0.144,4.851-2.377C116.497,81.787,118.146,84.432,118.02,86.96z M106.753,67.406
			c0.972,3.256,2.157,6.449,3.245,9.671c0.09,0.267,0.138,0.548,0.204,0.815c-2.01,0.588-2.3,0.493-2.909-1.245
			c-1.285-3.667-2.521-7.351-3.809-11.124C105.905,64.886,106.063,65.095,106.753,67.406z M107.836,103.28
			c-0.009,0.875-0.469,1.07-1.224,1.063c-2.022-0.021-4.043-0.007-6.065-0.007c-1.973,0.004-3.946-0.022-5.917,0.015
			c-0.92,0.018-1.364-0.215-1.243-1.264c0.23-2.001,0.307-4.021,0.561-6.02c0.046-0.359,0.632-0.926,0.976-0.932
			c4.042-0.067,8.087-0.068,12.129-0.006c0.313,0.005,0.878,0.612,0.884,0.946C107.97,99.143,107.856,101.211,107.836,103.28z
			 M108.363,93.29c-3.957,0.013-7.914-0.015-11.87,0.025c-1.162,0.012-1.621-0.33-1.392-1.562c1-5.384,1.922-10.783,2.927-16.167
			c0.534-2.857,1.179-5.694,1.774-8.54c0.137-0.019,0.273-0.037,0.41-0.056c3.139,8.642,6.279,17.284,9.478,26.089
			C109.098,93.178,108.73,93.288,108.363,93.29z M116.166,103.634c-1.331,0.337-2.717,0.454-4.081,0.663
			c-0.985,0.151-1.438-0.196-1.426-1.277c0.023-1.921-0.06-3.845-0.137-5.766c-0.032-0.776,0.212-1.044,1.033-1.239
			c1.7-0.404,3.332-1.087,5.007-1.604c0.361-0.111,0.959-0.177,1.16,0.023c1.842,1.847,3.621,3.756,5.582,5.819
			C121.136,102.114,118.694,102.995,116.166,103.634z M130.326,89.452c-0.743,3.285-2.176,6.204-4.686,8.838
			c-2.126-2.073-4.116-3.977-6.043-5.943c-0.209-0.213-0.178-0.841-0.038-1.186c1.227-3.015,1.242-3.011,4.524-3.016
			c1.679-0.003,3.359,0.028,5.038-0.006C130.074,88.12,130.551,88.459,130.326,89.452z M129.477,85.219
			c-2.611-0.036-5.223-0.008-7.834-0.013c-0.24,0-0.529,0.013-0.711-0.107c-0.895-0.591-1.195-4.321-0.402-5.089
			c1.873-1.816,3.769-3.609,5.821-5.569c1.74,1.888,2.873,4.197,3.588,6.718c0.28,0.986,0.407,2.02,0.562,3.038
			C130.616,84.958,130.252,85.229,129.477,85.219z"/>
		<path fill="#1F69BB" d="M87.895,30.62h-5.277c-0.602,0-1.089-0.487-1.089-1.089s0.487-1.089,1.089-1.089h5.277
			c0.602,0,1.089,0.488,1.089,1.089S88.497,30.62,87.895,30.62z"/>
		<path fill="#F05C44" d="M80.423,25.034c-0.279,0-0.558-0.106-0.771-0.319c-0.425-0.425-0.425-1.115,0-1.54l3.146-3.146
			c0.426-0.425,1.115-0.425,1.54,0c0.426,0.425,0.426,1.115,0,1.54l-3.146,3.146C80.98,24.927,80.702,25.034,80.423,25.034z"/>
		<path fill="#1F69BB" d="M65.676,30.62H60.71c-0.601,0-1.089-0.487-1.089-1.089s0.488-1.089,1.089-1.089h4.966
			c0.602,0,1.089,0.488,1.089,1.089S66.277,30.62,65.676,30.62z"/>
		<path fill="#FDD32F" d="M73.868,23.436c-0.601,0-1.089-0.487-1.089-1.089v-4.654c0-0.602,0.488-1.089,1.089-1.089
			c0.602,0,1.089,0.488,1.089,1.089v4.654C74.957,22.949,74.469,23.436,73.868,23.436z"/>
		<path fill="#F05C44" d="M67.871,25.034c-0.279,0-0.557-0.106-0.77-0.319l-3.146-3.146c-0.425-0.425-0.425-1.115,0-1.54
			s1.115-0.425,1.54,0l3.146,3.146c0.425,0.425,0.425,1.115,0,1.54C68.429,24.927,68.15,25.034,67.871,25.034z"/>
		<g>
			<path fill="#FFFFFF" d="M64.838,88.008v10.853h6.492v3.347H61.085V88.008H64.838z"/>
			<path fill="#FFFFFF" d="M88.673,88.008v14.199H84.92v-7.546l-3.043,4.666h-2.15l-3.042-4.686v7.565h-3.753V88.008h3.55
				l4.32,6.654l4.321-6.654L88.673,88.008L88.673,88.008z"/>
		</g>
	</g>
</g>
</svg>
