<?xml version="1.0" encoding="utf-8"?>
<!-- Generator: Adobe Illustrator 16.0.3, SVG Export Plug-In . SVG Version: 6.00 Build 0)  -->
<!DOCTYPE svg PUBLIC "-//W3C//DTD SVG 1.1//EN" "http://www.w3.org/Graphics/SVG/1.1/DTD/svg11.dtd">
<svg version="1.1" id="Layer_1" xmlns="http://www.w3.org/2000/svg" xmlns:xlink="http://www.w3.org/1999/xlink" x="0px" y="0px"
	 width="193.086px" height="155.997px" viewBox="0 0 193.086 155.997" enable-background="new 0 0 193.086 155.997"
	 xml:space="preserve">
<rect x="0.291" y="0.009" fill="#F5F5F5" width="192.795" height="155.988"/>
<g opacity="0.3">
	<g>
		<g>
			<defs>
				<path id="SVGID_1_" d="M109.949,117.848c0,0,5.207-46.241,6.941-53.72c-0.207-1.475-39.319-0.726-39.319-0.726l7.33,54.445
					H109.949z"/>
			</defs>
			<clipPath id="SVGID_2_">
				<use xlink:href="#SVGID_1_"  overflow="visible"/>
			</clipPath>
			<g clip-path="url(#SVGID_2_)">
				<path fill="#868686" d="M125.158,83.973c-0.209-3.915-1.867-7.593-4.668-10.355c-2.842-2.8-6.555-4.345-10.453-4.345
					c-5.836,0-9.969,4.512-12.188,6.932c-0.127,0.141-0.262,0.284-0.395,0.429c-0.07-0.082-0.143-0.161-0.209-0.236
					c-2.029-2.313-6.25-7.124-12.469-7.124c-3.897,0-7.61,1.545-10.45,4.345c-2.802,2.763-4.458,6.44-4.668,10.355
					c-0.209,3.893,0.781,7.27,3.207,10.949c2.177,3.303,7.838,8.521,12.026,11.984c4.307,3.562,9.978,7.809,12.541,7.809
					c2.604,0,8.254-4.236,12.535-7.792c4.156-3.447,9.787-8.663,11.984-12.001C123.584,92.438,125.424,88.95,125.158,83.973z"/>
				<path fill="#202020" d="M97.432,116.604c-1.625,0-4.814-0.856-13.744-8.242c-1.553-1.287-9.446-7.92-12.399-12.399
					c-2.662-4.042-3.747-7.771-3.516-12.091c0.234-4.389,2.091-8.506,5.228-11.599c3.197-3.15,7.38-4.888,11.777-4.888
					c5.989,0,10.209,3.76,12.703,6.443c2.572-2.706,6.738-6.443,12.557-6.443c4.398,0,8.58,1.737,11.779,4.892
					c3.135,3.087,4.992,7.206,5.227,11.595c0.295,5.524-1.725,9.36-3.516,12.086c-2.309,3.511-7.896,8.716-12.354,12.418
					C102.291,115.752,99.076,116.604,97.432,116.604z M84.777,71.161c-3.398,0-6.639,1.353-9.126,3.803
					c-2.464,2.431-3.923,5.664-4.106,9.11c-0.186,3.461,0.708,6.484,2.898,9.811c1.926,2.926,7.242,7.918,11.652,11.566
					c8.663,7.17,11.089,7.378,11.337,7.378c0.412,0,2.895-0.355,11.33-7.358c4.375-3.633,9.662-8.624,11.611-11.586
					c1.473-2.243,3.135-5.385,2.898-9.811c-0.184-3.446-1.643-6.68-4.107-9.11c-2.486-2.45-5.729-3.803-9.127-3.803
					c-5.006,0-8.629,3.957-10.795,6.319l-1.824,1.968l-1.568-1.782C93.838,75.375,90.14,71.161,84.777,71.161z"/>
			</g>
		</g>
	</g>
	<path fill-rule="evenodd" clip-rule="evenodd" fill="#CECECE" d="M117.959,67.453c2.539,6.987,5.08,13.981,7.668,21.104
		c-0.48,0.078-0.777,0.169-1.074,0.169c-3.201,0.012-6.402-0.012-9.602,0.021c-0.941,0.011-1.311-0.267-1.127-1.264
		c0.809-4.355,1.555-8.723,2.367-13.078c0.432-2.312,0.953-4.607,1.436-6.907C117.736,67.482,117.85,67.466,117.959,67.453z"/>
	<path fill-rule="evenodd" clip-rule="evenodd" fill="#CECECE" d="M76.69,67.274c0.767,3.615,1.586,7.22,2.283,10.845
		c0.593,3.092,1.021,6.217,1.572,9.314c0.188,1.06-0.213,1.329-1.199,1.317c-3.267-0.039-6.535-0.015-10.096-0.015
		c2.407-7.28,4.746-14.364,7.087-21.444C76.455,67.286,76.572,67.282,76.69,67.274z"/>
	<path fill-rule="evenodd" clip-rule="evenodd" fill="#CECECE" d="M111.828,61.886c-0.602,0.035-1.025,0.084-1.449,0.081
		c-9.029-0.036-18.059-0.094-27.088-0.101c-1.149-0.002-1.254-0.454-1.009-1.385c0.828-3.152,0.815-3.152,4.088-3.152
		c7.433,0.001,14.866,0.022,22.3-0.021c1.232-0.009,2.051,0.18,2.266,1.593C111.084,59.863,111.488,60.783,111.828,61.886z
		 M96.873,60.276c2.074,0,4.148,0.008,6.223-0.002c0.783-0.003,1.605-0.042,1.686-1.083c0.086-1.111-0.766-1.341-1.586-1.348
		c-4.146-0.035-8.295-0.037-12.443-0.003c-0.805,0.006-1.702,0.185-1.637,1.297c0.057,0.993,0.841,1.139,1.655,1.139
		C92.804,60.277,94.84,60.276,96.873,60.276z"/>
	<path fill-rule="evenodd" clip-rule="evenodd" fill="#868686" d="M118.229,97.666c-1.596,0.001-3.191-0.021-4.787,0.008
		c-0.744,0.016-1.102-0.173-1.006-1.021c0.188-1.617,0.248-3.251,0.455-4.87c0.035-0.29,0.51-0.749,0.789-0.753
		c3.27-0.055,6.543-0.055,9.812-0.004c0.254,0.002,0.711,0.493,0.715,0.766c0.029,1.673-0.064,3.344-0.082,5.02
		c-0.008,0.707-0.377,0.863-0.988,0.859C121.5,97.653,119.863,97.664,118.229,97.666z"/>
	<path fill-rule="evenodd" clip-rule="evenodd" fill="#5C5C5C" d="M82.299,97.572c-0.614,0.038-1.08,0.092-1.544,0.092
		c-2.954,0.006-5.907-0.02-8.859,0.02c-0.872,0.009-1.206-0.272-1.19-1.168c0.025-1.513-0.04-3.029-0.11-4.543
		c-0.031-0.7,0.167-1.005,0.934-0.996c3.112,0.033,6.226-0.009,9.338,0.039c0.361,0.007,0.998,0.388,1.025,0.646
		C82.093,93.587,82.173,95.521,82.299,97.572z"/>
	<path fill-rule="evenodd" clip-rule="evenodd" fill="#5C5C5C" d="M57.533,71.6c3.276-2.875,7.056-4.135,11.631-3.887
		c-0.495,1.439-0.926,2.697-1.358,3.95c-0.013,0.039-0.038,0.074-0.044,0.113c-0.326,1.747-1.076,3.06-3.064,3.301
		c-0.436,0.055-0.921,0.377-1.219,0.72c-0.822,0.943-1.402,0.628-2.104-0.162C60.184,74.299,58.913,73.038,57.533,71.6z"/>
	<path fill-rule="evenodd" clip-rule="evenodd" fill="#868686" d="M137.219,71.657c-1.465,1.529-2.844,3.015-4.289,4.437
		c-0.199,0.195-0.771,0.195-1.078,0.065c-1.156-0.485-2.275-1.06-3.4-1.613c-0.199-0.099-0.465-0.232-0.531-0.412
		c-0.719-1.979-1.408-3.967-2.092-5.959c-0.033-0.094,0.047-0.225,0.074-0.332C129.051,67.022,134.965,69.028,137.219,71.657z"/>
	<path fill-rule="evenodd" clip-rule="evenodd" fill="#868686" d="M57.952,94.265c1.275-1.18,2.385-2.203,3.485-3.235
		c0.291-0.272,0.608-0.542,0.815-0.876c0.48-0.764,0.922-0.784,1.757-0.362c1.116,0.561,2.378,0.892,3.614,1.134
		c0.703,0.141,0.959,0.334,0.923,1.044c-0.074,1.557-0.049,3.117-0.159,4.669c-0.025,0.347-0.451,0.965-0.667,0.956
		C64.312,97.453,61.12,96.606,57.952,94.265z"/>
	<path fill-rule="evenodd" clip-rule="evenodd" fill="#5C5C5C" d="M136.639,94.361c-1.754,1.506-3.73,2.217-5.773,2.735
		c-1.078,0.271-2.199,0.366-3.303,0.534c-0.795,0.124-1.162-0.156-1.152-1.034c0.018-1.553-0.049-3.109-0.111-4.663
		c-0.025-0.627,0.172-0.844,0.836-1.002c1.375-0.327,2.695-0.88,4.051-1.299c0.293-0.089,0.777-0.143,0.938,0.021
		C133.613,91.146,135.053,92.691,136.639,94.361z"/>
	<path fill-rule="evenodd" clip-rule="evenodd" fill="#5C5C5C" d="M139.104,73.476c1.408,1.529,2.324,3.396,2.904,5.438
		c0.227,0.795,0.328,1.631,0.453,2.454c0.094,0.619-0.201,0.836-0.828,0.829c-2.113-0.029-4.225-0.007-6.336-0.011
		c-0.195,0-0.428,0.011-0.576-0.086c-0.725-0.478-0.967-3.497-0.326-4.117C135.91,76.515,137.443,75.064,139.104,73.476z"/>
	<path fill-rule="evenodd" clip-rule="evenodd" fill="#868686" d="M55.777,73.416c1.684,1.644,3.225,3.199,4.825,4.687
		c0.6,0.557,0.453,1.082,0.265,1.718c-0.69,2.344-0.677,2.344-3.074,2.348c-1.475,0-2.953-0.043-4.423,0.03
		c-0.834,0.043-1.088-0.267-0.986-1.027C52.771,78.271,53.816,75.663,55.777,73.416z"/>
	<path fill-rule="evenodd" clip-rule="evenodd" fill="#5C5C5C" d="M52.538,84.449c2.396,0,4.814-0.017,7.233,0.026
		c0.214,0.002,0.503,0.332,0.616,0.574c1.184,2.534,1.175,2.539-0.809,4.517c-0.877,0.874-1.721,1.783-2.645,2.601
		c-0.226,0.199-0.874,0.282-1.052,0.119C54.409,90.925,52.253,86.893,52.538,84.449z"/>
	<path fill-rule="evenodd" clip-rule="evenodd" fill="#868686" d="M138.529,92.772c-1.721-1.676-3.33-3.219-4.889-4.809
		c-0.168-0.172-0.143-0.68-0.029-0.959c0.992-2.438,1.004-2.435,3.66-2.439c1.357-0.003,2.717,0.022,4.076-0.005
		c0.77-0.017,1.156,0.259,0.973,1.062C141.719,88.28,140.561,90.643,138.529,92.772z"/>
	<path fill-rule="evenodd" clip-rule="evenodd" fill="#CECECE" d="M106.801,46.04c-6.773,0-13.537,0-20.3,0
		c-0.097-1.705,0.573-2.386,2.429-2.393c4.311-0.017,8.624-0.006,12.936-0.006c0.879,0,1.756-0.022,2.633,0.01
		C106.023,43.711,106.631,44.339,106.801,46.04z"/>
	<path fill-rule="evenodd" clip-rule="evenodd" fill="#5C5C5C" d="M103.725,48.542c-1.936,1.316-3.871,2.629-5.811,3.941
		c-0.064,0.042-0.146,0.084-0.221,0.084c-2.679,0.005-5.358,0.003-8.039,0.003c-0.037-0.097-0.074-0.194-0.112-0.291
		c1.026-0.7,2.134-1.31,3.062-2.12c1.989-1.735,4.246-2.297,6.83-2.042c1.395,0.137,2.814,0.024,4.223,0.024
		C103.68,48.274,103.703,48.409,103.725,48.542z"/>
	<path fill-rule="evenodd" clip-rule="evenodd" fill="#868686" d="M91.612,48.536c-1.964,1.324-3.843,2.815-5.933,3.901
		c-0.913,0.474-2.261,0.173-3.399,0.09c-0.233-0.019-0.435-0.644-0.618-1.006c-0.041-0.077,0.051-0.225,0.089-0.337
		c1.188-3.437,0.66-3.024,4.053-3.041c1.896-0.01,3.793-0.004,5.69-0.004C91.533,48.273,91.573,48.403,91.612,48.536z"/>
	<path fill-rule="evenodd" clip-rule="evenodd" fill="#868686" d="M101.646,52.275c1.658-1.118,3.352-2.189,4.955-3.376
		c0.832-0.613,1.678-0.805,2.668-0.77c0.846,0.03,1.309,0.407,1.572,1.183c1.326,3.906,0.668,3.336-2.369,3.339
		c-1.914,0.002-3.826,0.005-5.738-0.002c-0.332-0.001-0.662-0.053-0.992-0.079C101.711,52.474,101.68,52.375,101.646,52.275z"/>
	<path fill-rule="evenodd" clip-rule="evenodd" fill="#5C5C5C" d="M120.605,66.264c1.957-0.515,2.088-0.347,2.646,1.523
		c0.783,2.635,1.742,5.219,2.623,7.824c0.072,0.217,0.111,0.443,0.166,0.657c-1.627,0.478-1.861,0.399-2.355-1.006
		C122.648,72.296,121.646,69.316,120.605,66.264z"/>
	<path fill-rule="evenodd" clip-rule="evenodd" fill="#868686" d="M74.246,66.244c-1.125,3.276-2.19,6.485-3.336,9.667
		c-0.39,1.078-1.306,0.456-2.186,0.495c0.752-2.271,1.458-4.415,2.169-6.561c0.239-0.716,0.547-1.416,0.725-2.149
		C72.056,65.901,72.222,65.788,74.246,66.244z"/>
	<path fill-rule="evenodd" clip-rule="evenodd" d="M96.873,60.276c-2.033,0-4.069,0.001-6.102,0c-0.814,0-1.599-0.146-1.655-1.139
		c-0.065-1.112,0.832-1.291,1.637-1.297c4.148-0.034,8.296-0.032,12.443,0.003c0.82,0.007,1.672,0.236,1.586,1.348
		c-0.08,1.041-0.902,1.08-1.686,1.083C101.021,60.284,98.947,60.276,96.873,60.276z"/>
	<path fill-rule="evenodd" clip-rule="evenodd" d="M77.622,76.25c0,0.894-0.726,1.624-1.625,1.624c-0.896,0-1.623-0.73-1.623-1.624
		c0-0.896,0.727-1.624,1.623-1.624C76.896,74.626,77.622,75.354,77.622,76.25z"/>
	<path fill-rule="evenodd" clip-rule="evenodd" d="M67.605,108.201c0,0.896-0.728,1.627-1.625,1.627
		c-0.896,0-1.624-0.73-1.624-1.627c0-0.896,0.728-1.625,1.624-1.625C66.877,106.576,67.605,107.306,67.605,108.201z"/>
	<circle fill-rule="evenodd" clip-rule="evenodd" cx="80.087" cy="117.848" r="1.624"/>
	<circle fill-rule="evenodd" clip-rule="evenodd" cx="114.281" cy="117.848" r="1.625"/>
	<path fill-rule="evenodd" clip-rule="evenodd" d="M130.416,108.201c0,0.896-0.727,1.627-1.623,1.627s-1.623-0.73-1.623-1.627
		c0-0.896,0.727-1.625,1.623-1.625S130.416,107.306,130.416,108.201z"/>
	<path fill-rule="evenodd" clip-rule="evenodd" d="M119.939,76.25c0,0.894-0.727,1.624-1.625,1.624c-0.895,0-1.621-0.73-1.621-1.624
		c0-0.896,0.727-1.624,1.621-1.624C119.213,74.626,119.939,75.354,119.939,76.25z"/>
	<path fill-rule="evenodd" clip-rule="evenodd" d="M59.987,107.824c-0.73,1.505-0.19,2.658,1.005,4.009
		c0.269-0.706,2.7-6.268,2.7-6.268l0.087-0.268c0.214-0.722,0.604-0.911,1.301-0.909c5.441,0.016,10.883,0.016,16.326-0.007
		c0.842-0.003,1.247,0.301,1.3,1.165c0.185,3.032,0.442,6.06,0.592,9.094c0.168,3.392,0.234,6.533,0.38,9.927
		c0.083,1.927,0.195,2.013,2.078,2.261c0.042-0.259,0.124-0.52,0.12-0.78c-0.089-5.516-0.192-10.774-0.286-16.288
		c0,0-1.236-16.814-2.108-21.803c-1.226-7.001-2.505-13.986-4.651-20.78c-0.297-0.941-0.478-1.921-0.754-3.049
		c12.761,0,25.385,0,38.186,0c-0.453,1.726-0.963,3.352-1.297,5.014c-1.246,6.184-2.438,12.374-3.629,18.566l-2.219,21.089
		c-0.244,5.828-0.43,10.652-0.625,16.484c-0.008,0.251,0.098,0.509,0.148,0.752c1.736-0.198,1.965-0.396,2.047-1.946
		c0.1-1.873,0.125-2.744,0.221-4.617c0.227-4.472,0.455-8.942,0.73-13.41c0.102-1.661,0.16-1.664,1.773-1.667
		c5.721-0.017,11.441-0.009,17.162-0.056c0.83-0.009,0.998,0.492,1.213,1.054c0.363,0.956,3.072,5.272,3.514,6.442
		c1.197-1.351,1.736-2.504,1.008-4.009c-0.469-0.964-3.074-5.387-3.51-6.366c-0.35-0.782-0.113-1.021,0.623-1.409
		c1.639-0.869,3.309-1.783,4.707-2.979c5.807-4.972,7.779-11.284,5.814-18.647c-1.59-5.959-5.74-9.796-11.33-11.965
		c-1.982-0.771-4.301-0.661-6.453-1.026c-0.607-0.104-1.168-0.474-1.752-0.725c-0.564-0.243-1.111-0.621-1.701-0.699
		c-0.904-0.122-1.84-0.001-2.754-0.062c-0.361-0.023-0.836-0.158-1.035-0.413c-0.934-1.2-2.16-1.621-3.596-1.488
		c-0.76,0.07-1.078-0.249-1.279-0.92c-0.5-1.682-1.021-3.357-1.58-5.022c-0.318-0.954-0.477-1.808,0.516-2.501
		c0.23-0.161,0.389-0.522,0.449-0.819c0.453-2.152-0.332-3.986-1.641-5.601c-0.354-0.437-1.066-0.732-1.648-0.797
		c-0.805-0.088-1.064-0.451-1.244-1.167c-0.607-2.41-2.051-3.526-4.568-3.582c-1.439-0.03-2.881-0.002-4.32-0.002
		c-2.211-0.005-2.449-0.17-2.137-2.203c1.021-0.374,1.752-1.353,1.752-2.506c0-1.476-1.197-2.671-2.672-2.671
		c-1.477,0-2.672,1.195-2.672,2.671c0,1.12,0.691,2.08,1.672,2.476c0.05,0.347,0.063,0.703,0.08,1.074
		c0.041,0.879-0.216,1.205-1.14,1.177c-2.04-0.063-4.082-0.041-6.123-0.012c-1.856,0.028-3.349,0.732-4.15,2.512
		c-0.228,0.506-0.308,1.077-0.535,1.584c-0.11,0.242-0.407,0.575-0.615,0.57c-1.66-0.028-2.453,1.092-3.016,2.351
		c-0.928,2.066-1.681,4.181,0.741,5.876c0.15,0.107,0.2,0.514,0.139,0.739c-0.54,2.005-1.154,3.989-1.657,6.003
		c-0.167,0.671-0.505,0.709-1.079,0.799c-0.915,0.146-2.163,0.215-2.623,0.814c-0.953,1.239-2.102,1.002-3.3,1.116
		c-0.746,0.072-1.653,0.235-2.154,0.709c-0.63,0.601-1.221,0.768-2.013,0.753c-3.335-0.057-6.437,0.616-9.335,2.446
		c-6.687,4.226-9.856,10.208-8.736,18.03c0.984,6.87,4.94,11.71,11.48,14.279c0.79,0.31,0.93,0.671,0.638,1.446
		c-0.232,0.618,0.087-0.352-0.46,1.314C62.092,102.981,60.176,107.436,59.987,107.824z M70.894,69.846
		c0.239-0.716,0.547-1.416,0.725-2.149c0.437-1.795,0.603-1.908,2.627-1.452c-1.125,3.276-2.19,6.485-3.336,9.667
		c-0.39,1.078-1.306,0.456-2.186,0.495C69.477,74.135,70.183,71.991,70.894,69.846z M69.488,80.543
		c-0.848,2.579-1.604,4.965-2.439,7.324c-0.091,0.261-0.66,0.57-0.938,0.518c-1.702-0.348-3.471-2.685-3.624-4.66
		c-0.161-2.069,1.216-4.321,3.233-5.114C66.252,80.431,67.749,80.69,69.488,80.543z M69.165,67.713
		c-0.495,1.439-0.926,2.697-1.358,3.95c-0.013,0.039-0.038,0.074-0.044,0.113c-0.326,1.747-1.076,3.06-3.064,3.301
		c-0.436,0.055-0.921,0.377-1.219,0.72c-0.822,0.943-1.402,0.628-2.104-0.162c-1.192-1.336-2.463-2.597-3.842-4.035
		C60.81,68.725,64.589,67.465,69.165,67.713z M52.384,81.171c0.387-2.9,1.432-5.508,3.394-7.755
		c1.684,1.644,3.225,3.199,4.825,4.687c0.6,0.557,0.453,1.082,0.265,1.718c-0.69,2.344-0.677,2.344-3.074,2.348
		c-1.475,0-2.953-0.043-4.423,0.03C52.536,82.241,52.282,81.932,52.384,81.171z M55.881,92.286
		c-1.472-1.361-3.628-5.394-3.344-7.837c2.396,0,4.814-0.017,7.233,0.026c0.214,0.002,0.503,0.332,0.616,0.574
		c1.184,2.534,1.175,2.539-0.809,4.517c-0.877,0.874-1.721,1.783-2.645,2.601C56.708,92.366,56.06,92.449,55.881,92.286z
		 M68.388,96.638c-0.025,0.347-0.451,0.965-0.667,0.956c-3.408-0.141-6.601-0.987-9.768-3.329c1.275-1.18,2.385-2.203,3.485-3.235
		c0.291-0.272,0.608-0.542,0.815-0.876c0.48-0.764,0.922-0.784,1.757-0.362c1.116,0.561,2.378,0.892,3.614,1.134
		c0.703,0.141,0.959,0.334,0.923,1.044C68.473,93.525,68.498,95.086,68.388,96.638z M81.892,91.661
		c0.201,1.926,0.281,3.859,0.407,5.911c-0.614,0.038-1.08,0.092-1.544,0.092c-2.954,0.006-5.907-0.02-8.859,0.02
		c-0.872,0.009-1.206-0.272-1.19-1.168c0.025-1.513-0.04-3.029-0.11-4.543c-0.031-0.7,0.167-1.005,0.934-0.996
		c3.112,0.033,6.226-0.009,9.338,0.039C81.228,91.022,81.864,91.403,81.892,91.661z M78.973,78.119
		c0.593,3.092,1.021,6.217,1.572,9.314c0.188,1.06-0.213,1.329-1.199,1.317c-3.267-0.039-6.535-0.015-10.096-0.015
		c2.407-7.28,4.746-14.364,7.087-21.444c0.117-0.006,0.234-0.01,0.352-0.018C77.457,70.89,78.276,74.494,78.973,78.119z
		 M109.27,48.13c0.846,0.03,1.309,0.407,1.572,1.183c1.326,3.906,0.668,3.336-2.369,3.339c-1.914,0.002-3.826,0.005-5.738-0.002
		c-0.332-0.001-0.662-0.053-0.992-0.079c-0.031-0.097-0.062-0.195-0.096-0.295c1.658-1.118,3.352-2.189,4.955-3.376
		C107.434,48.286,108.279,48.095,109.27,48.13z M97.914,52.483c-0.064,0.042-0.146,0.084-0.221,0.084
		c-2.679,0.005-5.358,0.003-8.039,0.003c-0.037-0.097-0.074-0.194-0.112-0.291c1.026-0.7,2.134-1.31,3.062-2.12
		c1.989-1.735,4.246-2.297,6.83-2.042c1.395,0.137,2.814,0.024,4.223,0.024c0.021,0.133,0.045,0.268,0.066,0.4
		C101.789,49.858,99.854,51.171,97.914,52.483z M88.929,43.647c4.311-0.017,8.624-0.006,12.936-0.006
		c0.879,0,1.756-0.022,2.633,0.01c1.525,0.06,2.133,0.688,2.303,2.389c-6.773,0-13.537,0-20.3,0
		C86.403,44.335,87.073,43.654,88.929,43.647z M81.663,51.521c-0.041-0.077,0.051-0.225,0.089-0.337
		c1.188-3.437,0.66-3.024,4.053-3.041c1.896-0.01,3.793-0.004,5.69-0.004c0.039,0.134,0.079,0.264,0.118,0.396
		c-1.964,1.324-3.843,2.815-5.933,3.901c-0.913,0.474-2.261,0.173-3.399,0.09C82.047,52.509,81.846,51.884,81.663,51.521z
		 M110.379,61.967c-9.029-0.036-18.059-0.094-27.088-0.101c-1.149-0.002-1.254-0.454-1.009-1.385
		c0.828-3.152,0.815-3.152,4.088-3.152c7.433,0.001,14.866,0.022,22.3-0.021c1.232-0.009,2.051,0.18,2.266,1.593
		c0.148,0.963,0.553,1.883,0.893,2.985C111.227,61.921,110.803,61.97,110.379,61.967z M125.902,67.843
		c3.148-0.82,9.062,1.186,11.316,3.814c-1.465,1.529-2.844,3.015-4.289,4.437c-0.199,0.195-0.771,0.195-1.078,0.065
		c-1.156-0.485-2.275-1.06-3.4-1.613c-0.199-0.099-0.465-0.232-0.531-0.412c-0.719-1.979-1.408-3.967-2.092-5.959
		C125.795,68.081,125.875,67.95,125.902,67.843z M132.365,83.606c-0.096,1.946-1.801,4.315-3.5,4.753
		c-0.27,0.072-0.844-0.166-0.932-0.393c-0.914-2.369-1.758-4.768-2.721-7.439c1.889,0.169,3.367-0.115,3.926-1.921
		C131.133,79.422,132.467,81.563,132.365,83.606z M123.252,67.787c0.783,2.635,1.742,5.219,2.623,7.824
		c0.072,0.217,0.111,0.443,0.166,0.657c-1.627,0.478-1.861,0.399-2.355-1.006c-1.037-2.967-2.039-5.946-3.08-8.999
		C122.562,65.749,122.693,65.917,123.252,67.787z M124.125,96.811c-0.008,0.707-0.377,0.863-0.988,0.859
		c-1.637-0.017-3.273-0.006-4.908-0.006c-1.596,0.003-3.191-0.019-4.787,0.01c-0.744,0.016-1.102-0.173-1.006-1.021
		c0.188-1.617,0.248-3.251,0.455-4.87c0.035-0.29,0.51-0.749,0.789-0.753c3.27-0.055,6.543-0.055,9.812-0.004
		c0.254,0.002,0.711,0.493,0.715,0.766C124.236,93.464,124.143,95.135,124.125,96.811z M124.553,88.726
		c-3.201,0.012-6.402-0.012-9.602,0.021c-0.941,0.011-1.311-0.267-1.127-1.264c0.809-4.355,1.555-8.723,2.367-13.078
		c0.432-2.312,0.953-4.607,1.436-6.907c0.109-0.016,0.223-0.032,0.332-0.045c2.539,6.987,5.08,13.981,7.668,21.104
		C125.146,88.635,124.85,88.726,124.553,88.726z M130.865,97.097c-1.078,0.271-2.199,0.366-3.303,0.534
		c-0.795,0.124-1.162-0.156-1.152-1.034c0.018-1.553-0.049-3.109-0.111-4.663c-0.025-0.627,0.172-0.844,0.836-1.002
		c1.375-0.327,2.695-0.88,4.051-1.299c0.293-0.089,0.777-0.143,0.938,0.021c1.49,1.491,2.93,3.037,4.516,4.707
		C134.885,95.867,132.908,96.578,130.865,97.097z M142.32,85.622c-0.602,2.658-1.76,5.021-3.791,7.15
		c-1.721-1.676-3.33-3.219-4.889-4.809c-0.168-0.172-0.143-0.68-0.029-0.959c0.992-2.438,1.004-2.435,3.66-2.439
		c1.357-0.003,2.717,0.022,4.076-0.005C142.117,84.544,142.504,84.819,142.32,85.622z M141.633,82.197
		c-2.113-0.029-4.225-0.007-6.336-0.011c-0.195,0-0.428,0.011-0.576-0.086c-0.725-0.478-0.967-3.497-0.326-4.117
		c1.516-1.469,3.049-2.919,4.709-4.508c1.408,1.529,2.324,3.396,2.904,5.438c0.227,0.795,0.328,1.631,0.453,2.454
		C142.555,81.987,142.26,82.204,141.633,82.197z"/>
	<path fill="#5C5C5C" d="M107.994,38.023h-4.27c-0.486,0-0.881-0.391-0.881-0.877c0-0.488,0.395-0.881,0.881-0.881h4.27
		c0.484,0,0.881,0.393,0.881,0.881C108.875,37.633,108.479,38.023,107.994,38.023z"/>
	<path fill="#868686" d="M101.947,33.508c-0.225,0-0.449-0.088-0.623-0.26c-0.344-0.344-0.344-0.901,0-1.245l2.547-2.547
		c0.344-0.343,0.902-0.343,1.246,0c0.344,0.346,0.344,0.904,0,1.248l-2.545,2.544C102.4,33.42,102.174,33.508,101.947,33.508z"/>
	<path fill="#5C5C5C" d="M90.019,38.023h-4.018c-0.487,0-0.882-0.391-0.882-0.877c0-0.488,0.395-0.881,0.882-0.881h4.018
		c0.485,0,0.88,0.393,0.88,0.881C90.899,37.633,90.504,38.023,90.019,38.023z"/>
	<path fill="#CECECE" d="M96.645,32.216c-0.485,0-0.88-0.395-0.88-0.881v-3.767c0-0.486,0.395-0.881,0.88-0.881
		c0.488,0,0.881,0.395,0.881,0.881v3.767C97.525,31.821,97.133,32.216,96.645,32.216z"/>
	<path fill="#868686" d="M91.795,33.508c-0.227,0-0.451-0.088-0.623-0.26l-2.546-2.544c-0.344-0.344-0.344-0.902,0-1.248
		c0.344-0.343,0.902-0.343,1.246,0l2.546,2.547c0.343,0.344,0.343,0.901,0,1.245C92.245,33.42,92.02,33.508,91.795,33.508z"/>
	<g>
		<path fill="#FFFFFF" d="M89.341,84.453v8.782h5.252v2.707h-8.289V84.453H89.341z"/>
		<path fill="#FFFFFF" d="M108.623,84.453v11.489h-3.035v-6.105l-2.463,3.774h-1.738l-2.463-3.792v6.123h-3.035V84.453h2.871
			l3.496,5.384l3.494-5.384H108.623z"/>
	</g>
</g>
</svg>
