<?xml version="1.0" encoding="utf-8"?>
<!-- Generator: Adobe Illustrator 16.0.3, SVG Export Plug-In . SVG Version: 6.00 Build 0)  -->
<!DOCTYPE svg PUBLIC "-//W3C//DTD SVG 1.1//EN" "http://www.w3.org/Graphics/SVG/1.1/DTD/svg11.dtd">
<svg version="1.1" xmlns="http://www.w3.org/2000/svg" xmlns:xlink="http://www.w3.org/1999/xlink" x="0px" y="0px" width="150px"
	 height="180px" viewBox="0 0 150 180" enable-background="new 0 0 150 180" xml:space="preserve">
<g id="Layer_1" display="none">
	<g display="inline">
		<g>
			<circle fill="#F05C44" cx="75" cy="74.009" r="67.99"/>
			<g>
				<g>
					<path fill="#FFFFFF" d="M75.702,102.522l-0.192-0.025l-33.5-4.322V45.303l33.692,4.348l33.692-4.348v52.872L75.702,102.522z
						 M45.01,95.536l30.692,3.961l30.692-3.961V48.715l-30.692,3.96l-0.192-0.024l-30.5-3.936V95.536z"/>
					<rect x="74.202" y="51.163" fill="#FFFFFF" width="3" height="49.847"/>
					<polygon fill="#FFFFFF" points="96.932,71.245 91.279,68.417 85.625,71.244 85.625,49.086 88.625,49.086 88.625,66.39 
						91.279,65.062 93.932,66.389 93.932,48.048 96.932,48.048 					"/>
					
						<rect x="49.686" y="56.932" transform="matrix(0.9945 0.1047 -0.1047 0.9945 6.4437 -5.9181)" fill="#FFFFFF" width="19.839" height="3"/>
					
						<rect x="49.686" y="67.317" transform="matrix(0.9945 0.1047 -0.1047 0.9945 7.5326 -5.8623)" fill="#FFFFFF" width="19.84" height="3"/>
					
						<rect x="49.686" y="77.702" transform="matrix(0.9945 0.1047 -0.1047 0.9945 8.6198 -5.8053)" fill="#FFFFFF" width="19.84" height="3"/>
					
						<rect x="49.686" y="88.086" transform="matrix(0.9945 0.1047 -0.1047 0.9945 9.7047 -5.747)" fill="#FFFFFF" width="19.839" height="3"/>
					
						<rect x="90.299" y="69.282" transform="matrix(0.1048 0.9945 -0.9945 0.1048 160.9418 -20.3934)" fill="#FFFFFF" width="3" height="19.84"/>
					
						<rect x="90.299" y="79.666" transform="matrix(0.1048 0.9945 -0.9945 0.1048 171.2691 -11.0974)" fill="#FFFFFF" width="3" height="19.839"/>
				</g>
			</g>
		</g>
		<g>
			<polygon fill="#1E69BB" points="96.854,161.115 74.999,173.731 53.147,161.115 53.147,135.883 74.999,123.266 96.854,135.883 			
				"/>
			<g>
				<path fill="#FFFFFF" d="M78.045,159.499h-4.78v-12.393l0.046-2.036l0.078-2.227c-0.794,0.752-1.346,1.245-1.656,1.479
					l-2.599,1.978l-2.305-2.725l7.287-5.493h3.929V159.499z"/>
			</g>
		</g>
	</g>
</g>
<g id="Layer_2" display="none">
	<g display="inline">
		<g>
			<circle fill="#F05C44" cx="75" cy="74.009" r="67.99"/>
			<g>
				<g>
					<path fill="#FFFFFF" d="M69.644,84.83L45.557,72.786l67.881-31.752L69.644,84.83z M52.445,72.875l16.606,8.304l30.194-30.194
						L52.445,72.875z"/>
					<path fill="#FFFFFF" d="M79.512,106.132L67.498,82.685L112.58,40.3L79.512,106.132z M71.197,83.324l8.289,16.177l22.813-45.418
						L71.197,83.324z"/>
				</g>
				<path fill="#FFFFFF" d="M53.906,104.722c-0.244,0-0.49-0.007-0.741-0.022c-2.164-0.131-3.896-1.397-4.751-3.474
					c-0.612-1.486-0.73-3.249-0.413-5.006c-5.032,0.238-9.093,2.008-10.923,7.479l-2.845-0.951c2.57-7.685,8.783-9.506,14.77-9.573
					c0.446-0.911,1.013-1.771,1.691-2.53c1.708-1.913,5.586-4.833,12.361-2.905l-0.821,2.886c-4.943-1.408-7.787,0.32-9.301,2.017
					c-0.191,0.214-0.368,0.435-0.53,0.66c1.77,0.14,3.447,0.371,4.922,0.574l0.356,0.049c3.947,0.542,5.128,2.945,4.941,4.84
					C62.328,101.74,58.798,104.722,53.906,104.722z M51.051,96.239c-0.352,1.457-0.27,2.856,0.136,3.843
					c0.418,1.016,1.145,1.562,2.16,1.623c3.619,0.214,6.145-1.771,6.289-3.236c0.11-1.111-1.617-1.47-2.364-1.572l-0.358-0.05
					C54.906,96.57,52.934,96.336,51.051,96.239z"/>
			</g>
		</g>
		<g>
			<polygon fill="#1E69BB" points="96.853,161.115 75.001,173.731 53.147,161.115 53.147,135.883 75.001,123.266 96.853,135.883 			
				"/>
			<g>
				<path fill="#FFFFFF" d="M82.038,159.499H66.227v-3.149l5.678-5.435c1.681-1.631,2.779-2.761,3.295-3.392
					c0.515-0.629,0.887-1.213,1.114-1.75c0.227-0.537,0.34-1.094,0.34-1.67c0-0.859-0.25-1.499-0.75-1.919
					c-0.5-0.42-1.168-0.63-2.003-0.63c-0.876,0-1.728,0.19-2.553,0.571s-1.686,0.923-2.583,1.626l-2.599-2.915
					c1.114-0.898,2.037-1.533,2.77-1.904c0.732-0.371,1.531-0.657,2.398-0.856c0.866-0.201,1.835-0.301,2.908-0.301
					c1.413,0,2.661,0.244,3.744,0.732c1.083,0.488,1.923,1.172,2.521,2.051s0.897,1.885,0.897,3.018
					c0,0.986-0.184,1.912-0.549,2.775c-0.366,0.865-0.934,1.751-1.702,2.659c-0.769,0.908-2.122,2.202-4.061,3.882l-2.909,2.593
					v0.205h9.855V159.499z"/>
			</g>
		</g>
	</g>
</g>
<g id="Layer_3">
	<g>
		<g>
			<circle fill="#F05C44" cx="75" cy="74.009" r="67.99"/>
			<g>
				<g>
					<g>
						<g id="_x37__8_">
							<g>
								<path fill="#FFFFFF" d="M88.051,53.909c-7.16-4.038-16.318-1.642-20.453,5.352l-5.986,10.131l-11.174,7.207l11.668,6.58l0,0
									c-2.067,3.497-0.84,7.968,2.74,9.987c3.58,2.019,8.158,0.82,10.225-2.676l11.668,6.58l0.805-13.055l5.986-10.131
									C97.664,66.891,95.211,57.947,88.051,53.909z M66.342,90.633c-2.146-1.212-2.883-3.894-1.645-5.992l7.779,4.387
									C71.237,91.126,68.491,91.845,66.342,90.633z M90.936,72.421L84.95,82.552l-0.602,9.792L55.824,76.259l8.381-5.404
									l5.986-10.131c3.309-5.596,10.633-7.513,16.361-4.282C92.281,59.672,94.244,66.826,90.936,72.421z"/>
							</g>
						</g>
					</g>
				</g>
				<g>
					<polygon fill="#FFFFFF" points="95.092,101.598 92.447,101.387 93.363,89.956 99.465,82.096 101.559,83.723 95.943,90.957 
											"/>
					
						<rect x="99.518" y="96.766" transform="matrix(0.9968 0.0799 -0.0799 0.9968 8.3848 -7.7326)" fill="#FFFFFF" width="2.653" height="8.343"/>
				</g>
				<g>
					<polygon fill="#FFFFFF" points="45.543,72.599 44.145,70.344 53.219,64.721 57.088,56.42 59.492,57.54 55.291,66.56 					"/>
					
						<rect x="40.776" y="60.752" transform="matrix(0.5265 0.8502 -0.8502 0.5265 75.1308 -5.0537)" fill="#FFFFFF" width="2.652" height="8.344"/>
				</g>
			</g>
		</g>
		<g>
			<polygon fill="#1E69BB" points="96.852,161.115 74.999,173.731 53.147,161.115 53.147,135.883 74.999,123.266 96.852,135.883 			
				"/>
			<g>
				<path fill="#FFFFFF" d="M82.155,142.873c0,1.338-0.428,2.476-1.284,3.413c-0.856,0.938-2.058,1.582-3.604,1.934v0.088
					c1.825,0.215,3.208,0.739,4.146,1.575c0.938,0.834,1.408,1.96,1.408,3.376c0,2.061-0.789,3.665-2.367,4.812
					c-1.578,1.148-3.832,1.722-6.761,1.722c-2.455,0-4.631-0.386-6.529-1.157v-3.853c0.876,0.42,1.841,0.762,2.893,1.025
					c1.052,0.264,2.094,0.396,3.125,0.396c1.578,0,2.744-0.254,3.497-0.762c0.752-0.508,1.129-1.323,1.129-2.446
					c0-1.006-0.434-1.719-1.3-2.139s-2.249-0.63-4.146-0.63h-1.717v-3.472h1.748c1.753,0,3.035-0.218,3.845-0.651
					c0.81-0.436,1.214-1.18,1.214-2.234c0-1.621-1.073-2.432-3.218-2.432c-0.743,0-1.499,0.117-2.267,0.352
					c-0.769,0.234-1.622,0.64-2.561,1.216l-2.212-3.12c2.062-1.406,4.522-2.109,7.379-2.109c2.341,0,4.19,0.449,5.546,1.348
					C81.477,140.021,82.155,141.271,82.155,142.873z"/>
			</g>
		</g>
	</g>
</g>
<g id="Layer_4" display="none">
	<g display="inline">
		<g>
			<circle fill="#F05C44" cx="75" cy="74.009" r="67.99"/>
			<g>
				<path fill="#FFFFFF" d="M82.525,60.665c0-5.372,4.371-9.745,9.746-9.745c5.373,0,9.744,4.371,9.744,9.745
					c0,1.546-1.254,2.799-2.799,2.799c-1.547,0-2.801-1.253-2.801-2.799c0-2.286-1.857-4.145-4.145-4.145s-4.146,1.859-4.146,4.145
					c0,1.546-1.252,2.799-2.799,2.799S82.525,62.21,82.525,60.665z M51.48,60.635c0-5.372,4.371-9.744,9.746-9.744
					c5.371,0,9.744,4.371,9.744,9.744c0,1.546-1.254,2.8-2.801,2.8c-1.545,0-2.799-1.254-2.799-2.8c0-2.286-1.859-4.145-4.145-4.145
					c-2.287,0-4.146,1.859-4.146,4.145c0,1.546-1.254,2.8-2.801,2.8S51.48,62.181,51.48,60.635z M50.238,85.664
					c-0.713-1.713,0.1-3.68,1.814-4.391c0.422-0.175,0.857-0.258,1.287-0.258c1.316,0,2.566,0.779,3.104,2.072
					c3.109,7.487,10.812,12.324,19.623,12.324c8.611,0,16.27-4.839,19.51-12.331c0.736-1.704,2.715-2.49,4.414-1.75
					c1.705,0.737,2.488,2.713,1.752,4.417c-4.303,9.951-14.381,16.379-25.676,16.379C64.531,102.129,54.393,95.666,50.238,85.664z"
					/>
			</g>
		</g>
		<g>
			<polygon fill="#1E69BB" points="96.853,161.116 75.001,173.732 53.147,161.116 53.147,135.883 75.001,123.267 96.853,135.883 			
				"/>
			<g>
				<path fill="#FFFFFF" d="M82.548,155.061h-2.723v4.439h-4.672v-4.439H65.5v-3.148l9.917-13.828h4.409v13.461h2.723V155.061z
					 M75.153,151.545v-3.633c0-0.605,0.026-1.484,0.078-2.637c0.051-1.152,0.093-1.82,0.124-2.006H75.23
					c-0.382,0.801-0.841,1.582-1.377,2.344l-4.146,5.932H75.153z"/>
			</g>
		</g>
	</g>
</g>
</svg>
